<svg xmlns="http://www.w3.org/2000/svg" width="500" height="500" viewBox="0 0 500 500" version="1.1"><path d="M 292 134.878 C 292 135.361, 293.800 136.214, 296 136.772 C 300.480 137.909, 301.355 136.939, 297.453 135.161 C 294.428 133.782, 292 133.657, 292 134.878 M 307.478 141.325 C 309.116 142.521, 313.957 147.100, 318.236 151.500 C 325.864 159.343, 332.511 170.383, 334.414 178.368 C 334.790 179.945, 335.331 181.002, 335.617 180.717 C 336.396 179.937, 333.409 170.551, 330.344 164.148 C 327.234 157.652, 311.045 140.739, 306.994 139.755 C 304.611 139.176, 304.633 139.246, 307.478 141.325 M 238.150 149.006 C 232.437 153.145, 232.907 153.835, 238.750 149.886 C 244.678 145.880, 244.537 146, 243.317 146 C 242.758 146, 240.433 147.353, 238.150 149.006 M 227.677 150.815 C 223.972 154.683, 224.295 155.551, 228.045 151.801 C 229.720 150.127, 230.924 148.591, 230.722 148.389 C 230.520 148.186, 229.150 149.278, 227.677 150.815 M 229.004 157.496 C 227.714 158.869, 226.848 160.160, 227.079 160.364 C 227.311 160.569, 228.547 159.446, 229.826 157.868 C 232.689 154.338, 232.185 154.110, 229.004 157.496 M 288.607 158.582 C 287.736 160.852, 287.859 162.205, 288.879 161.575 C 290.066 160.841, 291.018 157, 290.013 157 C 289.574 157, 288.941 157.712, 288.607 158.582 M 257.670 163.766 C 257.984 165.012, 258.637 166.276, 259.121 166.575 C 260.489 167.420, 260.156 165.591, 258.550 163.441 C 257.151 161.568, 257.120 161.580, 257.670 163.766 M 285.526 166.950 C 283.970 169.959, 283.446 172.887, 284.685 171.648 C 285.493 170.840, 287.928 164, 287.408 164 C 287.212 164, 286.365 165.328, 285.526 166.950 M 210.500 180 C 210.120 181.729, 210.018 183.351, 210.273 183.606 C 210.528 183.861, 211.024 182.632, 211.375 180.875 C 211.726 179.118, 211.829 177.495, 211.602 177.269 C 211.376 177.042, 210.880 178.271, 210.500 180 M 308.441 183.468 C 307.374 184.276, 306.950 184.936, 307.500 184.936 C 308.050 184.936, 309.374 184.276, 310.441 183.468 C 311.509 182.661, 311.932 182, 311.382 182 C 310.832 182, 309.509 182.661, 308.441 183.468 M 336 193 C 336 198.683, 336.273 203.060, 336.607 202.726 C 337.401 201.932, 337.404 184.071, 336.610 183.277 C 336.275 182.941, 336 187.317, 336 193 M 273.336 192.634 C 271.046 193.445, 268.931 194.737, 268.637 195.504 C 268.293 196.401, 268.601 196.707, 269.501 196.361 C 270.533 195.965, 270.780 196.482, 270.445 198.331 C 270.112 200.168, 270.813 201.659, 273.072 203.918 C 274.918 205.764, 275.591 207, 274.751 207 C 272.877 207, 269 202.784, 269 200.745 C 269 199.850, 268.550 198.840, 268 198.500 C 266.431 197.531, 266.830 201.313, 268.557 203.777 C 269.980 205.810, 269.765 206.437, 267.750 206.118 C 266.825 205.972, 266.764 207.431, 267.658 208.325 C 268.020 208.687, 268.920 208.481, 269.658 207.869 C 270.647 207.048, 271.369 207.062, 272.404 207.921 C 274.053 209.289, 279 208.325, 279 206.636 C 279 206.005, 277.671 204.900, 276.047 204.181 C 273.158 202.902, 272.326 201.531, 271.424 196.556 C 271.034 194.402, 271.426 194.011, 274.566 193.422 C 276.633 193.034, 279.286 193.237, 280.827 193.902 C 283.500 195.055, 283.500 195.055, 281 193.050 C 278.095 190.719, 278.652 190.750, 273.336 192.634 M 187.333 193.881 C 188.890 194.908, 190.128 196.030, 190.083 196.374 C 190.037 196.718, 190.930 197.930, 192.067 199.067 C 193.484 200.484, 194.506 200.827, 195.317 200.156 C 196.503 199.175, 204.090 200.609, 206.750 202.316 C 207.446 202.762, 208 202.683, 208 202.137 C 208 201.062, 203.592 199.469, 197.786 198.445 C 195.743 198.085, 193.525 197.133, 192.858 196.329 C 191.592 194.803, 186.682 191.995, 185.300 192.007 C 184.860 192.010, 185.775 192.854, 187.333 193.881 M 179.667 193.667 C 179.300 194.033, 179.039 195.496, 179.086 196.917 C 179.170 199.453, 179.188 199.447, 180.053 196.550 C 180.962 193.507, 180.828 192.506, 179.667 193.667 M 284 197.108 C 284 198.618, 285.556 198.808, 287.853 197.579 C 290.146 196.351, 290.135 196.333, 287.090 196.333 C 285.390 196.333, 284 196.682, 284 197.108 M 177.881 202.781 C 177.552 204.769, 177.698 205.702, 178.253 205.147 C 178.757 204.643, 179.002 203.166, 178.797 201.865 C 178.482 199.864, 178.342 200.004, 177.881 202.781 M 270.395 210.170 C 269.920 210.938, 270.202 211.137, 271.214 210.748 C 272.062 210.423, 273.261 210.661, 273.878 211.278 C 274.672 212.072, 275 212.081, 275 211.307 C 275 210.706, 274.288 209.941, 273.418 209.607 C 271.315 208.800, 271.232 208.816, 270.395 210.170 M 277.032 209.821 C 277.014 210.548, 277.675 211.818, 278.500 212.643 C 280.428 214.571, 280.451 212.978, 278.532 210.441 C 277.611 209.223, 277.052 208.992, 277.032 209.821 M 178.286 215.500 C 178.294 218.250, 178.488 219.256, 178.718 217.736 C 178.947 216.216, 178.941 213.966, 178.704 212.736 C 178.467 211.506, 178.279 212.750, 178.286 215.500 M 272.700 214.341 C 272.417 215.078, 272.533 216.244, 272.958 216.933 C 273.477 217.772, 273.895 217.330, 274.227 215.592 C 274.740 212.908, 273.606 211.979, 272.700 214.341 M 279.015 215.167 C 279.023 215.350, 279.651 217.284, 280.410 219.465 C 282.319 224.949, 284.168 225.284, 282.565 219.855 C 281.875 217.517, 280.790 215.430, 280.155 215.218 C 279.520 215.007, 279.007 214.983, 279.015 215.167 M 187 216.778 C 187 217.206, 187.900 218.326, 189 219.268 C 191.356 221.285, 191.716 219.859, 189.429 217.571 C 187.689 215.832, 187 215.606, 187 216.778 M 179.232 225 C 179.232 226.925, 179.438 227.713, 179.689 226.750 C 179.941 225.787, 179.941 224.213, 179.689 223.250 C 179.438 222.287, 179.232 223.075, 179.232 225 M 330.809 224.750 C 330.181 226.262, 329.614 227.725, 329.548 228 C 329.483 228.275, 328.846 229.551, 328.134 230.836 C 326.087 234.525, 327.532 234.459, 329.712 230.763 C 331.754 227.303, 333.437 222, 332.494 222 C 332.195 222, 331.437 223.238, 330.809 224.750 M 254.622 228.750 C 255.415 232.058, 255.778 232.556, 256.712 231.621 C 257.104 231.230, 256.894 230.060, 256.245 229.021 C 255.273 227.464, 255.367 227.055, 256.783 226.683 C 258.024 226.357, 257.871 226.200, 256.231 226.116 C 254.247 226.015, 254.045 226.346, 254.622 228.750 M 241.571 230.571 C 241.204 232.037, 241.096 233.429, 241.331 233.665 C 241.567 233.900, 242.061 232.894, 242.429 231.429 C 242.796 229.963, 242.904 228.571, 242.669 228.335 C 242.433 228.100, 241.939 229.106, 241.571 230.571 M 187.393 235.582 C 187.727 236.452, 188 237.352, 188 237.582 C 188 237.812, 188.450 238, 189 238 C 189.550 238, 190 237.100, 190 236 C 190 234.830, 189.333 234, 188.393 234 C 187.338 234, 186.995 234.544, 187.393 235.582 M 182.071 238.500 C 182.071 239.050, 182.714 240.625, 183.500 242 C 184.286 243.375, 184.929 244.050, 184.929 243.500 C 184.929 242.950, 184.286 241.375, 183.500 240 C 182.714 238.625, 182.071 237.950, 182.071 238.500 M 269.389 239.570 C 269.725 240.447, 270 241.352, 270 241.582 C 270 241.812, 270.450 242, 271 242 C 272.629 242, 272.138 239.267, 270.389 238.596 C 269.209 238.143, 268.941 238.404, 269.389 239.570 M 318.500 243.843 C 316.300 246.301, 312.740 249.596, 310.588 251.165 C 308.437 252.734, 306.003 255.026, 305.180 256.259 C 304.087 257.896, 304.602 257.672, 307.092 255.424 C 308.966 253.733, 312.404 250.889, 314.731 249.105 C 318.644 246.105, 323.691 240.222, 322.859 239.629 C 322.662 239.488, 320.700 241.385, 318.500 243.843 M 191.058 245.883 C 193.662 251.274, 202.230 260.397, 207.046 262.907 C 212.910 265.963, 213.124 265.465, 207.485 261.888 C 201.463 258.069, 194.670 250.813, 192.396 245.769 C 191.461 243.696, 190.355 242, 189.939 242 C 189.522 242, 190.026 243.747, 191.058 245.883 M 257.070 244.691 C 257.032 245.896, 257.450 247.160, 258 247.500 C 259.183 248.231, 259.183 247.252, 258 244.500 C 257.171 242.572, 257.138 242.579, 257.070 244.691 M 290.596 247.392 C 288.819 250.500, 288.819 250.500, 291.452 248.036 C 293.813 245.826, 294.312 245.713, 296.292 246.947 C 298.261 248.172, 298.361 248.153, 297.217 246.769 C 294.819 243.866, 292.487 244.085, 290.596 247.392 M 271.015 247.250 C 271.024 247.938, 271.417 249.111, 271.890 249.857 C 273.001 251.609, 274.229 249.761, 273.396 247.590 C 272.672 245.704, 270.993 245.464, 271.015 247.250 M 297 249.645 C 297 250.183, 296.082 251.608, 294.961 252.811 C 293.840 254.015, 293.338 255, 293.846 255 C 295.071 255, 298.323 249.989, 297.580 249.247 C 297.261 248.928, 297 249.107, 297 249.645 M 287.500 260.131 C 281.304 265.163, 280.633 265.918, 284.565 263.435 C 289.128 260.554, 291.535 258.647, 292.370 257.250 C 293.485 255.386, 292.965 255.694, 287.500 260.131 M 196.500 262.867 C 198.700 265.232, 201.850 268.100, 203.500 269.239 C 207.007 271.661, 205.601 270.180, 198 263.442 C 192.500 258.567, 192.500 258.567, 196.500 262.867 M 214.152 266.545 C 215.060 267.473, 216.349 268.050, 217.015 267.828 C 217.682 267.606, 216.938 266.847, 215.363 266.141 C 212.683 264.940, 212.606 264.966, 214.152 266.545 M 219.116 268.450 C 219.453 268.786, 221.222 269.490, 223.047 270.013 C 224.872 270.537, 225.945 270.581, 225.433 270.112 C 224.371 269.140, 218.177 267.510, 219.116 268.450 M 265 270 C 265.589 271.100, 266.574 272, 267.190 272 C 267.806 272, 267.495 271.100, 266.500 270 C 265.505 268.900, 264.519 268, 264.310 268 C 264.101 268, 264.411 268.900, 265 270 M 247.750 284.706 C 248.988 284.944, 251.012 284.944, 252.250 284.706 C 253.488 284.467, 252.475 284.272, 250 284.272 C 247.525 284.272, 246.512 284.467, 247.750 284.706 M 118.775 295.559 C 114.214 298.034, 111.572 304.867, 113.074 310.305 C 115.565 319.328, 126.779 322.122, 133.174 315.315 C 134.874 313.505, 135.407 311.703, 135.448 307.631 C 135.512 301.138, 133.748 297.583, 129.454 295.545 C 125.427 293.634, 122.314 293.638, 118.775 295.559 M 309.846 296.107 C 305.483 298.706, 304 301.588, 304 307.470 C 304 310.712, 304.667 312.639, 306.573 314.904 C 309.089 317.894, 315.404 320.453, 318.143 319.593 C 318.889 319.359, 320.738 318.896, 322.250 318.564 C 324.500 318.071, 325 317.420, 325 314.981 C 325 311.163, 323.480 311.171, 321.500 315 C 319.754 318.377, 316.178 319.035, 313.598 316.455 C 310.959 313.816, 309.783 307.534, 311.034 302.750 C 312.896 295.622, 317.077 294.014, 321.460 298.740 C 324 301.480, 324 301.480, 324 298.799 C 324 295.559, 323.396 295.134, 317.833 294.458 C 314.508 294.054, 312.650 294.437, 309.846 296.107 M 400.992 296.081 C 398.966 297.257, 396.790 299.675, 395.838 301.808 C 394.326 305.199, 394.184 305.290, 394.096 302.924 C 393.916 298.092, 390.130 295.888, 380.925 295.257 C 373.315 294.736, 372.721 294.830, 373.346 296.460 C 374.250 298.816, 374.331 315.022, 373.450 317.291 C 372.811 318.936, 373.380 319.051, 380.405 318.701 C 387.186 318.364, 388.394 317.996, 391.028 315.473 C 392.663 313.907, 394.020 311.698, 394.044 310.563 C 394.077 309.011, 394.578 309.427, 396.062 312.239 C 398.503 316.862, 401.886 319.166, 406.423 319.295 C 413.682 319.501, 418 314.734, 418 306.514 C 418 301.255, 415.956 297.546, 411.901 295.449 C 408.110 293.488, 405.167 293.659, 400.992 296.081 M 102.800 296.200 C 103.571 296.971, 104 300.927, 104 307.271 C 104 316.393, 103.876 317.019, 102.371 315.514 C 101.475 314.618, 100.088 314.136, 99.289 314.442 C 98.490 314.749, 97.648 315, 97.418 315 C 96.102 315, 97.312 318.097, 98.977 318.988 C 101.488 320.332, 107.359 318.065, 108.920 315.150 C 109.514 314.040, 110 309.592, 110 305.266 C 110 300.481, 110.470 296.930, 111.200 296.200 C 112.133 295.267, 111.200 295, 107 295 C 102.800 295, 101.867 295.267, 102.800 296.200 M 143.084 302.755 C 141.756 307.015, 139.843 312.170, 138.834 314.210 C 136.536 318.858, 136.544 319, 139.107 319 C 140.612 319, 141.042 318.551, 140.611 317.428 C 139.510 314.560, 141.801 312, 145.468 312 C 148.098 312, 149.038 312.508, 149.629 314.250 C 150.049 315.488, 150.284 317.063, 150.152 317.750 C 149.991 318.588, 151.281 319, 154.063 319 C 157.609 319, 158.115 318.745, 157.534 317.250 C 157.160 316.288, 155.258 310.887, 153.306 305.250 C 150.299 296.566, 149.432 295.001, 147.628 295.005 C 145.850 295.009, 145.103 296.282, 143.084 302.755 M 160 295.941 C 160 296.459, 160.450 297.160, 161 297.500 C 161.552 297.841, 162 302.344, 162 307.559 C 162 313.186, 161.596 317, 161 317 C 160.450 317, 160 317.450, 160 318 C 160 318.550, 161.016 319, 162.257 319 C 164.442 319, 164.505 318.735, 164.218 310.750 C 163.921 302.500, 163.921 302.500, 166.014 305 C 170.270 310.083, 170.997 311.039, 173.604 314.977 C 178.055 321.704, 179 320.517, 179 308.200 C 179 301.133, 179.415 296.985, 180.200 296.200 C 181.133 295.267, 180.644 295, 178 295 C 175.356 295, 174.867 295.267, 175.800 296.200 C 176.465 296.865, 177 300.057, 177 303.357 C 177 309.314, 177 309.314, 171.974 302.157 C 167.383 295.619, 166.647 295, 163.474 295 C 161.563 295, 160 295.423, 160 295.941 M 191.561 295.902 C 191.254 296.398, 189.497 301.011, 187.657 306.152 C 185.817 311.293, 183.968 316.288, 183.549 317.250 C 182.956 318.611, 183.265 319, 184.937 319 C 186.120 319, 187.015 318.438, 186.925 317.750 C 186.265 312.668, 186.881 311.876, 191.250 312.193 C 195.239 312.481, 195.519 312.699, 195.813 315.750 C 196.110 318.829, 196.339 319, 200.170 319 C 203.634 319, 204.109 318.749, 203.480 317.250 C 203.076 316.288, 201.139 310.887, 199.174 305.250 C 196.487 297.539, 195.171 295, 193.860 295 C 192.902 295, 191.867 295.406, 191.561 295.902 M 213 298 C 213 301.388, 214.495 302.040, 215.290 299 C 215.603 297.803, 216.654 297, 217.906 297 C 219.577 297, 220.024 297.656, 220.119 300.250 C 220.324 305.813, 219.901 315.417, 219.371 317.250 C 218.945 318.724, 219.545 319, 223.183 319.001 C 227.500 319.002, 227.500 319.002, 227.162 308.001 C 226.861 298.235, 227.012 297, 228.501 297 C 229.424 297, 230.980 297.989, 231.959 299.198 C 233.739 301.396, 233.739 301.396, 234.434 299.207 C 234.816 298.003, 234.848 296.564, 234.506 296.009 C 234.151 295.435, 229.385 295, 223.441 295 C 213 295, 213 295, 213 298 M 253.774 296.250 C 254.650 297.326, 255.572 301.657, 256.062 307 C 256.138 307.825, 256.498 307.437, 256.862 306.139 C 257.426 304.131, 257.973 304.879, 260.520 311.139 C 262.206 315.280, 264.119 318.500, 264.895 318.500 C 265.711 318.500, 267.341 315.449, 268.887 311.026 C 271.500 303.553, 271.500 303.553, 271.792 311.276 C 272.084 319, 272.084 319, 275.792 319 C 279.500 319, 279.500 319, 279.500 307 C 279.500 295, 279.500 295, 275.910 295 C 272.557 295, 272.234 295.280, 271.021 299.250 C 269.182 305.269, 267.610 309, 266.914 309 C 266.585 309, 265.080 305.850, 263.570 302 C 260.823 295, 260.823 295, 256.789 295 C 253.685 295, 252.990 295.288, 253.774 296.250 M 288.201 301.250 C 287.110 304.688, 285.290 309.823, 284.158 312.662 C 282.357 317.177, 282.291 317.898, 283.631 318.412 C 284.474 318.735, 285.277 319, 285.415 319 C 285.553 319, 285.667 317.610, 285.667 315.912 C 285.667 312.289, 287.494 310.842, 290.992 311.696 C 293.999 312.430, 295.077 313.810, 294.746 316.500 C 294.539 318.185, 295.169 318.548, 298.750 318.807 C 302.876 319.106, 303.888 318.406, 302.162 316.450 C 301.357 315.538, 298.726 308.217, 295.981 299.250 C 294.955 295.897, 294.206 295, 292.433 295 C 290.555 295, 289.860 296.027, 288.201 301.250 M 325.970 296.463 C 326.806 297.471, 327.078 301.225, 326.842 308.510 C 326.500 319.093, 326.500 319.093, 330 318.797 C 333.500 318.500, 333.500 318.500, 333.500 312.917 C 333.500 306.998, 333.907 306.596, 338.870 307.613 C 341.085 308.067, 341.210 308.454, 340.787 313.549 C 340.335 319, 340.335 319, 343.918 319.001 C 347.500 319.002, 347.500 319.002, 347.158 308.465 C 346.923 301.215, 347.195 297.470, 348.030 296.463 C 349.071 295.210, 348.481 295, 343.922 295 C 339.783 295, 338.867 295.267, 339.800 296.200 C 340.460 296.860, 341 299.335, 341 301.700 C 341 305.969, 340.974 306, 337.407 306 C 333.815 306, 333.815 306, 334.157 300.499 C 334.500 294.997, 334.500 294.997, 329.628 294.999 C 325.464 295, 324.932 295.213, 325.970 296.463 M 357.719 298.250 C 356.999 300.038, 355.321 304.875, 353.990 309 C 352.658 313.125, 351.103 316.831, 350.535 317.235 C 349.868 317.708, 349.945 317.975, 350.750 317.985 C 351.438 317.993, 352.295 318.113, 352.655 318.250 C 353.015 318.387, 353.430 317.677, 353.578 316.672 C 354.149 312.778, 354.969 312, 358.501 312 C 361.282 312, 362.248 312.494, 362.901 314.250 C 363.361 315.488, 363.523 317.063, 363.262 317.750 C 362.924 318.638, 364.120 319, 367.393 319 C 369.927 319, 372 318.550, 372 318 C 372 317.450, 371.635 317, 371.190 317 C 370.744 317, 369.363 313.962, 368.120 310.250 C 363.533 296.554, 362.795 295, 360.878 295 C 359.725 295, 358.534 296.225, 357.719 298.250 M 121.200 297.200 C 119.708 298.692, 119.580 313.346, 121.035 316.066 C 122.591 318.973, 126.825 318.591, 128.025 315.435 C 129.639 311.189, 129.245 299.388, 127.429 297.571 C 125.557 295.700, 122.861 295.539, 121.200 297.200 M 404 296.979 C 402.847 297.708, 402.500 300.023, 402.500 307 C 402.500 316.464, 403.149 317.949, 407.301 317.985 C 409.608 318.004, 412 312.412, 412 307 C 412 298.728, 408.389 294.205, 404 296.979 M 381 307 C 381 316.236, 381.148 317, 382.943 317 C 386.166 317, 388.003 313.170, 387.968 306.527 C 387.933 299.906, 386.461 297, 383.140 297 C 381.096 297, 381 297.449, 381 307 M 190.190 304.352 C 188.478 309.085, 188.691 310, 191.500 310 C 194.374 310, 194.420 309.793, 192.675 304.781 C 191.379 301.062, 191.379 301.062, 190.190 304.352 M 357.176 304.806 C 355.615 310.017, 355.611 310, 358.579 310 C 360.965 310, 361.107 309.756, 360.465 306.750 C 359.256 301.091, 358.435 300.606, 357.176 304.806 M 144.486 303.500 C 144.129 304.600, 143.434 306.512, 142.940 307.750 C 142.130 309.782, 142.333 310, 145.040 310 C 147.802 310, 147.987 309.784, 147.384 307.250 C 147.024 305.738, 146.371 303.825, 145.932 303 C 145.272 301.758, 145.023 301.844, 144.486 303.500 M 289.600 302.838 C 289.183 303.513, 288.459 305.400, 287.991 307.033 C 287.185 309.841, 287.297 310, 290.070 310 C 293.330 310, 293.358 309.911, 291.603 305.055 C 290.790 302.803, 290.096 302.035, 289.600 302.838 M 254.822 314.843 C 254.477 317.134, 254.754 318.352, 255.703 318.716 C 257.914 319.565, 258.200 318.473, 256.713 314.866 C 255.325 311.500, 255.325 311.500, 254.822 314.843 M 236.732 314.916 C 236.101 317.330, 237.724 319, 240.700 319 C 242.589 319, 243 318.464, 243 316 C 243 313.360, 242.654 313, 240.117 313 C 238.117 313, 237.080 313.587, 236.732 314.916 M 186.667 342.667 C 186.300 343.033, 186 346.408, 186 350.167 C 186 355.574, 186.313 357, 187.500 357 C 188.641 357, 189.003 355.744, 189.013 351.750 C 189.027 346.500, 189.027 346.500, 191.733 351.750 C 195.908 359.850, 198.490 358.051, 197.812 347.512 C 197.363 340.531, 195.004 340.243, 194.987 347.167 C 194.973 352.500, 194.973 352.500, 192.267 347.250 C 189.725 342.319, 188.235 341.099, 186.667 342.667 M 202 347.566 C 202 354.887, 203.195 357, 207.335 357 C 209.131 357, 211.140 356.460, 211.800 355.800 C 213.479 354.121, 213.433 341.690, 211.750 342.246 C 210.994 342.495, 210.381 344.925, 210.198 348.390 C 209.905 353.966, 209.823 354.114, 207.198 353.811 C 204.657 353.518, 204.483 353.165, 204.200 347.750 C 203.815 340.374, 202 340.222, 202 347.566 M 216.346 343.252 C 216.089 343.665, 217.032 344.442, 218.440 344.977 C 220.767 345.862, 221 346.462, 221 351.559 C 221 359.188, 223.384 358.520, 223.797 350.775 C 224.039 346.236, 224.454 345.115, 226.047 344.698 C 227.121 344.417, 228 343.738, 228 343.190 C 228 342.044, 217.059 342.102, 216.346 343.252 M 231.416 342.917 C 231.187 343.146, 231 346.408, 231 350.167 C 231 355.574, 231.313 357, 232.500 357 C 233.500 357, 234 356, 234 354 C 234 352.117, 234.513 351, 235.379 351 C 236.137 351, 237.317 352.350, 238 354 C 239.693 358.088, 240.952 357.770, 240.965 353.250 C 240.971 351.188, 241.027 348.233, 241.090 346.685 C 241.152 345.137, 240.963 343.629, 240.669 343.335 C 240.023 342.690, 232.005 342.327, 231.416 342.917 M 246 349.500 C 246 353.833, 246.422 357, 247 357 C 247.578 357, 248 353.833, 248 349.500 C 248 345.167, 247.578 342, 247 342 C 246.422 342, 246 345.167, 246 349.500 M 255.305 342.989 C 252.648 344.085, 251.415 349.332, 252.898 353.232 C 254.482 357.398, 261.097 358.388, 263.357 354.798 C 264.501 352.982, 263.369 350.841, 262.196 352.602 C 260.741 354.785, 257.954 354.954, 255.977 352.977 C 253.593 350.593, 253.503 349.154, 255.557 346.223 C 257.405 343.584, 259.258 343.400, 261.493 345.636 C 262.559 346.702, 263.469 346.931, 264.107 346.293 C 266.317 344.083, 259.164 341.397, 255.305 342.989 M 268.479 343.195 C 267.566 345.573, 268.381 355.995, 269.500 356.262 C 270.844 356.582, 271.386 343.986, 270.084 342.684 C 269.393 341.993, 268.877 342.156, 268.479 343.195 M 278.693 342.681 C 276.689 343.222, 275 346.828, 275 350.565 C 275 355.983, 282.759 359.134, 286.345 355.171 C 288.308 353.003, 288.573 345.720, 286.744 344.203 C 285.108 342.845, 280.980 342.065, 278.693 342.681 M 293.476 342.765 C 292.157 343.711, 292.179 355.424, 293.500 355.737 C 294.065 355.871, 294.500 353.803, 294.500 350.985 C 294.500 348.241, 294.579 345.997, 294.676 345.998 C 294.773 345.999, 296.074 348.496, 297.566 351.546 C 299.415 355.324, 300.794 356.994, 301.890 356.783 C 303.185 356.533, 303.500 355.120, 303.500 349.570 C 303.500 344.936, 303.089 342.530, 302.250 342.250 C 301.359 341.953, 300.983 343.364, 300.939 347.167 C 300.878 352.500, 300.878 352.500, 298.232 347.250 C 295.495 341.818, 295.193 341.534, 293.476 342.765 M 316.750 342.704 C 313.902 343.424, 314.462 348.434, 317.547 349.839 C 318.948 350.478, 320.748 351, 321.547 351 C 322.346 351, 323 351.675, 323 352.500 C 323 354.361, 317.376 354.585, 316.720 352.750 C 316.475 352.063, 315.891 351.859, 315.422 352.298 C 314.274 353.374, 316.295 356.418, 318.436 356.839 C 319.383 357.025, 321.275 356.897, 322.640 356.554 C 324.732 356.029, 325.073 355.427, 324.811 352.716 C 324.551 350.032, 323.921 349.313, 321 348.369 C 319.075 347.747, 317.500 346.628, 317.500 345.882 C 317.500 343.900, 321.154 343.523, 322.202 345.397 C 323.318 347.391, 325 347.489, 325 345.559 C 325 343.189, 320.707 341.703, 316.750 342.704 M 330.733 342.718 C 327.694 343.177, 327.954 345, 331.059 345 C 332.768 345, 333 345.728, 333 351.083 C 333 359.094, 335.367 358.833, 335.797 350.775 C 336.049 346.049, 336.426 345.104, 338.297 344.515 C 340.483 343.827, 340.481 343.816, 338 343.011 C 335.261 342.122, 334.799 342.103, 330.733 342.718 M 344.998 348.250 C 343.749 351.688, 342.516 355.063, 342.257 355.750 C 341.998 356.438, 342.509 357, 343.393 357 C 344.277 357, 345 356.377, 345 355.617 C 345 354.086, 347.545 353.192, 350.250 353.772 C 351.212 353.978, 352 354.789, 352 355.573 C 352 356.358, 352.675 357, 353.500 357 C 355.485 357, 355.438 356.666, 352.342 348.775 C 350.880 345.049, 349.140 342, 348.476 342 C 347.812 342, 346.246 344.813, 344.998 348.250 M 308 350 C 308 354, 308.429 357, 309 357 C 309.571 357, 310 354, 310 350 C 310 346, 309.571 343, 309 343 C 308.429 343, 308 346, 308 350 M 278.304 345.885 C 276.937 348.074, 277.629 351.995, 279.674 353.644 C 283.565 356.782, 287.486 350.918, 284.523 346.394 C 282.640 343.521, 279.919 343.299, 278.304 345.885 M 234 347.070 C 234 348.641, 234.539 349.062, 236.240 348.820 C 239.564 348.345, 239.856 345, 236.573 345 C 234.638 345, 234 345.513, 234 347.070 M 347.639 348.498 C 346.746 350.825, 346.807 351, 348.500 351 C 350.183 351, 350.373 350.137, 349.124 348.166 C 348.449 347.102, 348.149 347.169, 347.639 348.498 M 248 373.941 C 248 378.859, 248.450 383.160, 249 383.500 C 249.640 383.896, 250 380.677, 250 374.559 C 250 368.853, 249.597 365, 249 365 C 248.408 365, 248 368.647, 248 373.941 M 211.170 368.295 C 209.225 370.638, 208.623 375.927, 210.006 378.512 C 211.724 381.721, 216.330 382.669, 219.648 380.495 C 221.358 379.374, 221.880 378.480, 221.214 377.814 C 220.547 377.147, 219.382 377.359, 217.720 378.448 C 215.425 379.952, 215.096 379.953, 213.613 378.470 C 211.561 376.418, 211.541 372.602, 213.571 370.571 C 215.555 368.588, 216.454 368.597, 218.476 370.619 C 220.453 372.596, 221.838 371.556, 220.363 369.202 C 219.004 367.031, 212.733 366.412, 211.170 368.295 M 225.415 368.362 C 224.427 370.936, 225.463 381.330, 226.750 381.754 C 227.569 382.024, 228 381.103, 228 379.083 C 228 376.634, 228.425 376, 230.066 376 C 235.077 376, 237.919 371.319, 234.800 368.200 C 233.135 366.535, 226.069 366.656, 225.415 368.362 M 263.630 369.250 C 262.342 374.058, 262.801 375.023, 266.249 374.754 C 268.953 374.543, 269.553 374.879, 269.820 376.754 C 270.232 379.656, 267.200 380.994, 265.495 378.662 C 263.980 376.590, 263 376.534, 263 378.521 C 263 379.358, 264.068 380.530, 265.374 381.124 C 270.706 383.554, 275.542 376.477, 271.040 372.831 C 269.796 371.824, 268.041 370.947, 267.139 370.882 C 266.238 370.817, 266.813 370.479, 268.418 370.132 C 273.021 369.135, 272.873 367, 268.200 367 C 264.932 367, 264.127 367.396, 263.630 369.250 M 278.200 368.200 C 277.540 368.860, 277 370.570, 277 372 C 277 375.279, 278.691 377, 281.914 377 C 284.319 377, 284.351 377.077, 282.653 378.750 C 280.962 380.417, 280.816 380.417, 279.579 378.750 C 277.980 376.596, 277 376.509, 277 378.521 C 277 380.814, 281.286 382.453, 283.783 381.116 C 286.669 379.571, 287.717 372.743, 285.570 369.467 C 283.836 366.820, 280.204 366.196, 278.200 368.200 M 292.241 368.986 C 290.906 371.123, 290.658 375.122, 291.633 378.761 C 292.949 383.672, 301 382.300, 301 377.165 C 301 373.797, 299.364 372, 296.300 372 C 295.035 372, 294 371.587, 294 371.083 C 294 369.621, 296.348 369.223, 298.205 370.370 C 300.419 371.740, 301.650 370.488, 300.020 368.524 C 298.211 366.344, 293.724 366.610, 292.241 368.986 M 306.500 368 C 306.160 368.550, 306.102 369, 306.371 369 C 306.640 369, 306.460 370.397, 305.970 372.104 C 305.080 375.208, 305.080 375.208, 308.553 374.556 C 312.635 373.790, 314.339 376.090, 311.668 378.761 C 310.194 380.235, 309.910 380.229, 308.202 378.683 C 305.784 376.494, 305.071 376.556, 305.684 378.900 C 306.240 381.027, 310.957 382.163, 313.448 380.769 C 317.115 378.717, 313.963 370.846, 309.750 371.536 C 308.788 371.694, 308 371.441, 308 370.975 C 308 370.508, 309.428 369.986, 311.173 369.813 C 312.918 369.641, 314.531 368.938, 314.756 368.250 C 315.260 366.716, 307.440 366.479, 306.500 368 M 319.580 373.750 C 320.257 382.237, 321.991 384.507, 322.023 376.950 C 322.047 371.500, 322.047 371.500, 324.773 376.488 C 326.273 379.231, 328.288 381.626, 329.250 381.811 C 330.792 382.107, 331 381.247, 331 374.573 C 331 368.636, 330.688 367, 329.555 367 C 328.543 367, 328.018 368.409, 327.805 371.702 C 327.500 376.405, 327.500 376.405, 325.093 371.702 C 323.556 368.701, 322.027 367, 320.864 367 C 319.228 367, 319.097 367.690, 319.580 373.750 M 280.122 370.278 C 278.593 371.807, 278.711 373.675, 280.378 374.315 C 281.919 374.906, 284 373.235, 284 371.407 C 284 369.698, 281.446 368.954, 280.122 370.278 M 228 372.070 C 228 373.641, 228.539 374.062, 230.240 373.820 C 233.564 373.345, 233.856 370, 230.573 370 C 228.638 370, 228 370.513, 228 372.070 M 294 376.883 C 294 377.926, 294.893 379, 296 379.290 C 297.591 379.706, 298 379.320, 298 377.406 C 298 375.667, 297.446 375, 296 375 C 294.708 375, 294 375.667, 294 376.883" stroke="none" fill="#3a5308" fill-rule="evenodd"/><path d="M 261.578 133.120 C 259.421 133.626, 257.103 134.500, 256.426 135.062 C 255.566 135.775, 255.038 135.694, 254.676 134.792 C 254.280 133.803, 254.139 133.793, 254.079 134.750 C 254.033 135.474, 252.632 136.006, 250.750 136.015 C 248.170 136.027, 247.809 136.252, 249 137.102 C 250.203 137.961, 250.051 138.075, 248.232 137.676 C 246.955 137.395, 245.318 137.825, 244.482 138.660 C 243.667 139.476, 243 139.800, 243 139.380 C 243 138.961, 242.292 139.491, 241.426 140.559 C 240.560 141.626, 240.143 141.825, 240.500 141 C 240.857 140.175, 240.440 140.374, 239.574 141.441 C 238.708 142.509, 238 143.046, 238 142.635 C 238 142.225, 236.839 143.151, 235.419 144.694 C 234 146.237, 233.186 146.825, 233.611 146 C 234.277 144.709, 234.149 144.691, 232.692 145.872 C 231.761 146.627, 231 147.605, 231 148.046 C 231 148.956, 225.297 154.850, 224.212 155.062 C 223.820 155.138, 223.604 155.579, 223.731 156.042 C 223.858 156.506, 222.861 157.751, 221.515 158.810 C 220.169 159.868, 219.353 161.019, 219.701 161.367 C 220.049 161.715, 219.839 162, 219.234 162 C 218.629 162, 217.866 162.847, 217.538 163.881 C 217.209 164.916, 216.063 166.774, 214.991 168.010 C 213.919 169.247, 213.315 170.700, 213.649 171.241 C 213.983 171.781, 213.752 172.535, 213.135 172.917 C 212.518 173.298, 211.792 175.805, 211.520 178.487 C 211.249 181.170, 210.614 183.621, 210.110 183.933 C 209.605 184.245, 209.266 188.431, 209.356 193.235 C 209.470 199.344, 209.150 202.112, 208.292 202.442 C 207.616 202.701, 206.836 202.543, 206.556 202.091 C 206.277 201.639, 204.575 201.022, 202.774 200.720 C 200.973 200.418, 198.713 199.859, 197.750 199.478 C 196.418 198.951, 196 199.289, 196 200.893 C 196 202.203, 195.338 203.030, 194.250 203.079 C 193.287 203.122, 192.986 203.359, 193.580 203.606 C 194.249 203.883, 194.487 206.136, 194.206 209.527 C 193.827 214.097, 194.020 215, 195.376 215 C 196.269 215, 197 214.502, 197 213.893 C 197 213.284, 197.620 213.024, 198.379 213.315 C 199.745 213.839, 204.879 212.900, 208.250 211.508 C 209.329 211.063, 210 211.233, 210 211.952 C 210 212.593, 209.581 212.859, 209.069 212.543 C 208.557 212.226, 207.856 212.425, 207.510 212.984 C 207.165 213.543, 206.009 214, 204.941 214 C 203.873 214, 202.998 214.338, 202.996 214.750 C 202.993 215.162, 201.349 215.585, 199.342 215.690 C 197.335 215.794, 195.366 216.407, 194.967 217.053 C 194.433 217.917, 194.087 217.867, 193.655 216.863 C 192.595 214.400, 193.813 234.433, 194.895 237.250 C 195.667 239.261, 195.644 240, 194.809 240 C 194.181 240, 193.944 240.277, 194.282 240.615 C 194.620 240.954, 196.598 239.829, 198.676 238.115 C 200.755 236.402, 202.880 235, 203.399 235 C 203.918 235, 205.185 234.238, 206.214 233.306 C 207.973 231.714, 208.047 231.714, 207.436 233.306 C 207.079 234.238, 206.469 235, 206.082 235 C 205.694 235, 204.305 235.999, 202.994 237.220 C 201.684 238.441, 199.983 239.532, 199.214 239.645 C 196.892 239.986, 196.672 240.794, 198.016 244.039 C 200.376 249.735, 211.678 259.445, 214.631 258.312 C 215.421 258.008, 216 258.431, 216 259.311 C 216 262.407, 237.420 267.521, 239.125 264.832 C 239.729 263.880, 239.974 263.847, 239.985 264.719 C 239.994 265.443, 240.675 265.678, 241.664 265.299 C 242.783 264.869, 243.091 265.043, 242.605 265.830 C 242.071 266.694, 244.516 267, 251.941 267 C 258.377 267, 262 266.617, 262 265.937 C 262 265.353, 262.788 264.954, 263.750 265.052 C 267.731 265.457, 271.082 264.941, 270.507 264.011 C 270.157 263.446, 270.556 263.276, 271.440 263.615 C 272.361 263.969, 273.240 263.538, 273.621 262.546 C 274.002 261.551, 274.908 261.110, 275.879 261.445 C 277.238 261.915, 277.220 261.787, 275.766 260.654 C 274.812 259.910, 274.324 259.009, 274.682 258.651 C 275.040 258.293, 274.756 258, 274.050 258 C 273.238 258, 272.969 257.227, 273.317 255.895 C 273.620 254.737, 273.142 252.268, 272.255 250.408 C 271.367 248.547, 270.972 246.695, 271.375 246.292 C 272.484 245.183, 273.685 247.704, 275.112 254.137 C 275.820 257.328, 276.956 260.153, 277.637 260.414 C 278.317 260.675, 281.715 258.150, 285.187 254.802 C 288.659 251.455, 290.937 249.032, 290.248 249.418 C 289.560 249.804, 289.942 248.518, 291.097 246.560 C 292.265 244.581, 292.710 243, 292.099 243 C 291.494 243, 291 242.073, 291 240.941 C 291 239.809, 290.555 239.157, 290.011 239.493 C 289.424 239.856, 289.290 239.407, 289.681 238.388 C 290.096 237.308, 289.948 236.914, 289.283 237.325 C 288.701 237.684, 288.246 237.421, 288.270 236.739 C 288.407 232.946, 287.893 230.948, 286.933 231.541 C 286.346 231.904, 285.950 231.593, 286.052 230.850 C 286.154 230.108, 286.177 228.600, 286.103 227.500 C 285.990 225.803, 285.807 225.728, 284.898 227 C 284.037 228.205, 283.923 228.058, 284.320 226.250 C 284.652 224.735, 284.345 224, 283.382 224 C 281.834 224, 280.070 220.216, 279.484 215.643 C 279.283 214.071, 278.979 212.716, 278.809 212.632 C 278.639 212.548, 277.468 211.609, 276.207 210.545 C 273.939 208.634, 273.922 208.634, 274.604 210.556 C 275.150 212.092, 275.028 212.254, 274.025 211.328 C 272.482 209.903, 270 210.691, 270 212.607 C 270 213.373, 269.438 213.887, 268.750 213.750 C 268.063 213.612, 267.617 214.075, 267.759 214.778 C 267.902 215.481, 267.339 216.316, 266.509 216.635 C 265.679 216.953, 265 217.679, 265 218.247 C 265 218.815, 264.212 219.925, 263.250 220.714 C 262.147 221.618, 262.055 221.893, 263 221.457 C 263.825 221.076, 263.270 221.876, 261.768 223.234 C 260.265 224.591, 259.365 226.032, 259.768 226.434 C 260.170 226.837, 260.050 227.076, 259.500 226.965 C 258.950 226.854, 257.657 226.816, 256.628 226.882 C 255.141 226.976, 254.994 227.288, 255.916 228.398 C 256.554 229.167, 256.855 231.016, 256.585 232.507 C 256.314 233.998, 256.564 237.531, 257.139 240.359 C 257.714 243.186, 258.368 247.750, 258.592 250.500 C 258.816 253.250, 259.511 257.425, 260.138 259.779 C 260.764 262.132, 261.001 264.332, 260.666 264.667 C 259.746 265.588, 258.242 260.953, 257.605 255.231 C 257.293 252.430, 256.407 248.308, 255.636 246.070 C 254.865 243.831, 254.631 242, 255.117 242 C 255.603 242, 256 241.298, 256 240.441 C 256 239.584, 255.639 239.105, 255.198 239.377 C 254.757 239.650, 254.289 236.752, 254.158 232.936 C 253.990 228.055, 254.277 226, 255.127 226 C 255.790 226, 256.058 225.725, 255.722 225.389 C 255.189 224.855, 262.116 215.592, 266.618 210.819 C 268.721 208.591, 267.581 207, 263.882 207 C 262.232 207, 261.132 207.405, 261.438 207.900 C 261.744 208.395, 260.409 208.800, 258.470 208.800 C 256.532 208.800, 254.303 209.334, 253.517 209.986 C 252.731 210.638, 251.618 210.882, 251.044 210.527 C 250.470 210.172, 250 210.359, 250 210.941 C 250 211.523, 248.452 212, 246.559 212 C 244.666 212, 242.833 212.462, 242.484 213.027 C 242.135 213.591, 241.321 213.988, 240.675 213.908 C 237.705 213.541, 233.930 214.078, 234.379 214.804 C 234.652 215.246, 233.302 215.652, 231.380 215.706 C 228.214 215.796, 228.055 215.676, 229.692 214.434 C 230.686 213.680, 232.539 213.049, 233.809 213.032 C 235.079 213.014, 235.899 212.645, 235.631 212.212 C 235.208 211.528, 237.313 211.023, 241.750 210.745 C 242.438 210.702, 243 210.343, 243 209.947 C 243 209.301, 244.702 208.835, 251.626 207.587 C 252.795 207.376, 254.648 206.723, 255.744 206.137 C 256.840 205.550, 258.058 205.391, 258.450 205.784 C 258.843 206.176, 259.689 205.795, 260.332 204.936 C 260.974 204.078, 262.363 203.052, 263.417 202.655 C 264.569 202.222, 264.968 201.576, 264.417 201.036 C 262.889 199.539, 224.014 180, 222.564 180 C 220.385 180, 220 182.428, 220 196.153 C 220 207.167, 219.791 208.934, 218.627 207.770 C 216.593 205.736, 216.494 187.816, 218.472 179.828 C 221.291 168.442, 224.841 162.092, 232.809 154.178 C 237.972 149.050, 240.670 147.043, 241.810 147.481 C 242.706 147.824, 243.122 147.789, 242.735 147.401 C 242.347 147.014, 243.215 146.082, 244.664 145.331 C 246.112 144.579, 247.495 144.161, 247.736 144.402 C 247.977 144.643, 250.497 144.131, 253.337 143.264 C 260.555 141.060, 282.371 141.116, 290.500 143.360 C 299.781 145.921, 306.965 149.861, 313.249 155.836 C 319.457 161.739, 322.772 166.912, 324.888 174 C 325.627 176.475, 326.718 179.819, 327.313 181.432 C 328.878 185.680, 328.785 210.524, 327.183 216 C 324.414 225.465, 318.718 235.381, 312.393 241.750 C 306.310 247.874, 303.333 249.449, 303.333 246.543 C 303.333 245.741, 304.545 244.820, 306.026 244.494 C 310.550 243.501, 317.670 234.574, 316.551 231.299 C 315.938 229.506, 308.786 224, 307.070 224 C 306.573 224, 306.017 223.662, 305.833 223.250 C 305.401 222.277, 297.311 216, 296.489 216 C 296.143 216, 293.842 214.611, 291.375 212.914 C 288.908 211.217, 286.282 210.062, 285.539 210.347 C 284.166 210.873, 280.578 207.755, 281.498 206.836 C 281.774 206.559, 281.325 206.333, 280.500 206.333 C 279.675 206.333, 279 206.675, 279 207.093 C 279 207.511, 278.212 208.059, 277.250 208.311 C 275.613 208.738, 275.616 208.776, 277.286 208.884 C 279.118 209.003, 283.473 217.425, 282.509 218.986 C 282.235 219.428, 282.573 220.006, 283.259 220.269 C 283.946 220.533, 285.131 222.492, 285.895 224.624 C 286.658 226.756, 288.534 231.249, 290.065 234.608 C 291.595 237.968, 292.994 241.568, 293.174 242.608 C 293.353 243.649, 294.396 244.961, 295.491 245.525 C 296.586 246.089, 297.627 247.300, 297.803 248.216 C 298.222 250.389, 295.179 255, 293.326 255 C 292.532 255, 292.104 255.359, 292.375 255.798 C 292.646 256.237, 292.560 257.048, 292.184 257.601 C 291.038 259.284, 284.192 264.149, 282.650 264.375 C 281.853 264.492, 280.429 265.229, 279.485 266.013 C 277.355 267.780, 271.104 270.183, 268.728 270.148 C 267.754 270.133, 267.210 270.530, 267.519 271.030 C 268.063 271.911, 237.015 271.569, 228.500 270.600 C 226.300 270.349, 223.686 270.112, 222.691 270.072 C 221.696 270.033, 221.090 269.663, 221.344 269.250 C 221.597 268.837, 220.437 268.401, 218.764 268.279 C 217.091 268.158, 214.997 267.464, 214.111 266.737 C 213.225 266.011, 210.392 264.406, 207.817 263.171 C 202.600 260.671, 193.421 251.250, 191.333 246.255 C 190.587 244.470, 190.014 242.895, 190.059 242.755 C 190.104 242.615, 189.601 241.150, 188.942 239.500 C 187.788 236.611, 186.482 218.203, 187.612 220.750 C 188.430 222.592, 189.696 222.271, 190.270 220.075 C 190.608 218.784, 190.350 218.312, 189.488 218.643 C 187.501 219.405, 186.771 217.314, 187.506 212.963 C 187.901 210.628, 188.732 209, 189.529 209 C 191.135 209, 192.477 207.144, 191.546 206.212 C 191.186 205.852, 190.486 206.213, 189.991 207.015 C 189.098 208.459, 189.342 203.175, 190.394 198.291 C 190.759 196.593, 190.070 195.588, 187.409 193.944 C 183.227 191.359, 181.160 191.950, 180.358 195.960 C 180.027 197.614, 179.388 198.740, 178.937 198.461 C 178.487 198.183, 178.387 199.610, 178.715 201.633 C 179.084 203.905, 178.941 205.081, 178.340 204.710 C 177.773 204.360, 177.284 206.064, 177.165 208.805 C 177.010 212.405, 177.216 213.150, 178.049 212 C 178.866 210.874, 179.037 211.933, 178.736 216.250 C 178.506 219.550, 178.746 222, 179.299 222 C 179.847 222, 180.031 223.729, 179.727 226 C 179.391 228.503, 179.559 229.772, 180.177 229.391 C 180.719 229.056, 181.057 229.618, 180.928 230.641 C 180.798 231.663, 181.042 233.307, 181.470 234.293 C 181.897 235.279, 181.988 236.345, 181.671 236.662 C 181.354 236.979, 181.775 237.918, 182.605 238.748 C 183.436 239.578, 183.869 240.898, 183.569 241.681 C 183.237 242.545, 183.453 242.838, 184.119 242.427 C 184.859 241.969, 184.983 242.479, 184.500 244 C 183.965 245.686, 184.106 246.053, 185.063 245.461 C 185.971 244.900, 186.155 245.153, 185.701 246.336 C 185.350 247.251, 185.426 248, 185.871 248 C 186.680 248, 188.685 251.716, 188.779 253.388 C 188.807 253.877, 189.430 254.648, 190.165 255.102 C 190.899 255.556, 191.500 256.296, 191.500 256.747 C 191.500 257.198, 194.200 260.014, 197.500 263.005 C 200.800 265.996, 203.388 268.794, 203.250 269.222 C 203.113 269.650, 203.418 269.887, 203.929 269.750 C 204.441 269.612, 205.599 270.400, 206.504 271.500 C 207.408 272.600, 207.851 272.825, 207.487 272 C 207.124 271.175, 207.805 271.625, 209 273 C 210.195 274.375, 210.855 274.893, 210.466 274.150 C 209.896 273.062, 210.169 273.020, 211.879 273.935 C 213.046 274.560, 214 275.531, 214 276.094 C 214 276.657, 214.450 276.840, 215 276.500 C 215.550 276.160, 216 276.344, 216 276.910 C 216 277.475, 216.617 277.700, 217.371 277.411 C 218.125 277.122, 219.363 277.473, 220.121 278.192 C 220.879 278.912, 222.063 279.545, 222.750 279.600 C 225.601 279.828, 226.093 280.041, 225.603 280.833 C 225.091 281.661, 225.718 281.824, 230.482 282.104 C 231.847 282.184, 232.720 282.644, 232.423 283.125 C 231.890 283.987, 236.964 284.495, 242.159 284.099 C 243.621 283.988, 245.110 284.370, 245.468 284.948 C 245.826 285.527, 247.554 285.941, 249.309 285.868 C 252.500 285.737, 252.500 285.737, 249 284.956 C 246.115 284.313, 246.643 284.186, 252 284.232 C 262.519 284.322, 264.191 284.118, 263.403 282.842 C 262.916 282.054, 263.355 281.860, 264.779 282.232 C 265.929 282.533, 267.874 282.076, 269.101 281.217 C 270.328 280.357, 271.030 280.143, 270.661 280.740 C 269.735 282.238, 281.920 277.717, 287.289 274.571 C 289.702 273.156, 294.337 269.467, 297.589 266.372 C 300.840 263.277, 302.570 261.365, 301.434 262.123 C 300.298 262.880, 300.973 261.970, 302.934 260.099 C 304.895 258.228, 305.891 257.046, 305.146 257.472 C 304.241 257.990, 304.362 257.377, 305.511 255.623 C 307.106 253.189, 308.246 252.545, 310.324 252.906 C 310.778 252.985, 310.893 252.636, 310.580 252.130 C 310.008 251.204, 312.788 249.524, 314.324 249.866 C 314.778 249.967, 314.908 249.660, 314.613 249.183 C 313.883 248.001, 320.437 241.770, 321.399 242.732 C 321.821 243.155, 322.076 243.050, 321.965 242.500 C 321.561 240.496, 322.021 238.895, 322.853 239.409 C 323.323 239.699, 324.918 237.462, 326.399 234.438 C 328.136 230.890, 329.519 229.179, 330.296 229.616 C 331.199 230.124, 331.217 229.987, 330.368 229.064 C 329.520 228.144, 329.626 227.040, 330.789 224.668 C 331.644 222.925, 332.620 221.275, 332.958 221 C 333.296 220.725, 333.711 218.700, 333.880 216.500 C 334.048 214.300, 334.629 211.962, 335.170 211.305 C 336.501 209.688, 336.261 182.357, 334.894 179.802 C 334.303 178.699, 334.044 176.941, 334.317 175.896 C 334.590 174.852, 334.458 174.217, 334.023 174.486 C 333.588 174.755, 332.639 173.518, 331.913 171.737 C 328.353 162.999, 316.200 147, 313.122 147 C 312.505 147, 312.112 146.595, 312.250 146.100 C 312.387 145.605, 312.182 145.268, 311.793 145.350 C 311.404 145.433, 310.358 144.600, 309.469 143.500 C 308.579 142.400, 308.164 142.107, 308.547 142.850 C 309.106 143.938, 308.830 143.979, 307.121 143.065 C 305.954 142.440, 305 141.694, 305 141.406 C 305 141.118, 305.520 141.203, 306.155 141.595 C 306.879 142.043, 307.037 141.869, 306.579 141.128 C 306.178 140.478, 305.321 140.052, 304.675 140.181 C 302.303 140.653, 297.918 138.942, 298.614 137.816 C 299.028 137.146, 298.861 136.968, 298.200 137.376 C 296.517 138.416, 292 136.971, 292 135.392 C 292 134.626, 291.550 134, 291 134 C 290.450 134, 290 134.450, 290 135 C 290 135.550, 289.212 135.993, 288.250 135.985 C 286.862 135.973, 286.786 135.788, 287.882 135.094 C 289.905 133.813, 285.934 132.727, 282.436 133.605 C 280.502 134.091, 279.909 133.956, 280.410 133.146 C 281.280 131.739, 267.550 131.720, 261.578 133.120 M 263.975 143.061 C 260.937 143.406, 257.473 144.211, 256.279 144.851 C 253.939 146.103, 254.048 146.679, 258.478 156.500 C 259.223 158.150, 261.040 162.650, 262.517 166.500 C 263.994 170.350, 266.257 176.200, 267.546 179.500 C 268.835 182.800, 270.166 186.498, 270.502 187.717 C 270.991 189.488, 271.797 189.909, 274.502 189.807 C 277.275 189.703, 278.117 189.131, 279.144 186.653 C 279.833 184.988, 280.335 182.801, 280.259 181.792 C 280.183 180.782, 280.539 180.215, 281.049 180.530 C 281.559 180.846, 281.709 180.406, 281.382 179.552 C 281.052 178.692, 281.310 178, 281.960 178 C 282.703 178, 282.887 177.218, 282.460 175.875 C 282.006 174.445, 282.148 173.973, 282.893 174.434 C 284.072 175.162, 284.248 174.445, 284.189 169.159 C 284.169 167.322, 284.399 166.066, 284.700 166.367 C 285.002 166.668, 286.077 165.922, 287.091 164.707 C 288.104 163.493, 288.948 163.063, 288.967 163.750 C 288.985 164.438, 288.523 165, 287.941 165 C 287.359 165, 287.160 165.450, 287.500 166 C 287.840 166.550, 287.656 167, 287.090 167 C 286.525 167, 286.276 167.563, 286.538 168.250 C 286.799 168.938, 285.842 172.650, 284.411 176.500 C 280.901 185.948, 279.744 190.077, 280.418 190.752 C 280.729 191.062, 280.473 191.930, 279.850 192.681 C 278.951 193.764, 279.068 193.911, 280.418 193.393 C 281.622 192.931, 282.281 193.359, 282.673 194.859 C 282.978 196.024, 283.634 196.726, 284.130 196.420 C 284.626 196.113, 284.774 195.443, 284.457 194.931 C 284.141 194.419, 284.598 194, 285.472 194 C 286.347 194, 287.285 193.420, 287.557 192.711 C 287.830 192.002, 289.012 191.349, 290.186 191.261 C 291.360 191.173, 292.586 190.740, 292.910 190.300 C 293.235 189.860, 294.400 189.343, 295.500 189.150 C 296.600 188.958, 297.786 188.339, 298.136 187.775 C 298.486 187.211, 299.941 186.750, 301.368 186.750 C 302.796 186.750, 303.720 186.356, 303.423 185.875 C 303.125 185.394, 303.782 185, 304.882 185 C 305.982 185, 307.179 184.519, 307.542 183.932 C 307.905 183.344, 308.855 183.114, 309.653 183.420 C 310.579 183.776, 310.845 183.558, 310.388 182.819 C 309.916 182.054, 310.216 181.869, 311.271 182.274 C 312.151 182.611, 313.019 182.443, 313.200 181.899 C 313.381 181.356, 314.535 180.835, 315.765 180.743 C 316.994 180.650, 318 180.220, 318 179.787 C 318 179.354, 318.870 179, 319.933 179 C 322.312 179, 323.478 175.762, 322.055 173.104 C 321.475 172.019, 321 170.205, 321 169.073 C 321 167, 318.149 163.023, 314.558 160.088 C 313.490 159.214, 311.318 157.262, 309.731 155.750 C 308.144 154.238, 306.635 153, 306.378 153 C 306.120 153, 304.747 151.838, 303.326 150.417 C 301.731 148.822, 300.027 148.021, 298.872 148.323 C 297.842 148.593, 297 148.405, 297 147.906 C 297 146.382, 294.402 146.897, 292.745 148.750 C 291.885 149.713, 291.027 151.400, 290.840 152.500 C 290.653 153.600, 290.050 154.838, 289.500 155.250 C 288.846 155.740, 288.889 156.260, 289.624 156.750 C 290.390 157.261, 290.449 158.296, 289.809 160 C 288.996 162.165, 288.746 162.279, 287.940 160.848 C 287.302 159.714, 287.696 157.292, 289.196 153.122 C 290.398 149.781, 291.139 146.805, 290.842 146.509 C 289.880 145.547, 279.634 143.242, 274.500 142.833 C 271.750 142.614, 267.014 142.717, 263.975 143.061 M 243.940 149.506 C 237.131 152.932, 228.808 161.049, 225.597 167.395 C 224.045 170.463, 222.995 173.541, 223.264 174.236 C 224.197 176.649, 255.696 193.306, 257.370 192.272 C 257.886 191.952, 258.008 192.178, 257.640 192.773 C 257.264 193.382, 257.962 194.158, 259.235 194.546 C 260.481 194.926, 262.175 195.795, 263 196.477 C 264.966 198.103, 269 199.064, 269 197.906 C 269 197.408, 269.477 197, 270.059 197 C 270.641 197, 270.797 197.520, 270.405 198.155 C 269.933 198.918, 270.134 199.035, 270.997 198.502 C 272.032 197.862, 271.961 197.444, 270.651 196.487 C 269.743 195.823, 269 194.542, 269 193.640 C 269 192.738, 268.648 192, 268.218 192 C 267.788 192, 267.336 190.788, 267.213 189.306 C 267.091 187.824, 266.653 186.362, 266.240 186.056 C 265.143 185.243, 263 178.711, 263 176.179 C 263 174.981, 262.523 174, 261.941 174 C 261.359 174, 261.136 173.588, 261.447 173.085 C 261.758 172.582, 261.573 172.020, 261.035 171.835 C 260.498 171.651, 259.887 170.600, 259.679 169.500 C 259.471 168.400, 258.973 166.748, 258.573 165.828 C 258.173 164.909, 257.755 163.559, 257.645 162.828 C 257.534 162.098, 257.092 160.938, 256.663 160.250 C 256.233 159.563, 256.129 158.601, 256.430 158.113 C 256.731 157.626, 256.308 156.671, 255.489 155.991 C 254.670 155.311, 254 154.225, 254 153.577 C 254 151.148, 251.445 147.019, 250 147.113 C 249.175 147.167, 246.448 148.244, 243.940 149.506 M 320.404 181.844 C 320.798 182.482, 317.947 183.956, 305.540 189.530 C 303.913 190.261, 302.225 190.639, 301.790 190.371 C 301.356 190.102, 301 190.359, 301 190.941 C 301 191.523, 300.100 192, 299 192 C 297.900 192, 297 192.450, 297 193 C 297 193.550, 295.907 194, 294.571 194 C 293.236 194, 291.439 194.704, 290.579 195.564 C 289.719 196.424, 288.492 196.804, 287.853 196.409 C 287.130 195.963, 286.961 196.127, 287.405 196.845 C 288.048 197.886, 286.822 198.458, 284.707 198.104 C 284.271 198.031, 284.399 198.878, 284.992 199.986 C 285.752 201.404, 287.086 202, 289.504 202 C 292.095 202, 292.801 202.356, 292.380 203.453 C 291.696 205.235, 286.005 205.054, 286.002 203.250 C 286.001 202.563, 285.564 202, 285.031 202 C 284.499 202, 284.350 202.749, 284.701 203.664 C 285.131 204.783, 284.957 205.091, 284.170 204.605 C 283.461 204.167, 283 204.519, 283 205.500 C 283 206.390, 283.479 206.822, 284.064 206.460 C 284.650 206.098, 287.568 207.422, 290.549 209.401 C 293.530 211.381, 296.389 213, 296.901 213 C 297.414 213, 297.983 213.384, 298.167 213.854 C 298.350 214.323, 302.325 217.170, 307 220.181 C 311.675 223.191, 316.122 226.413, 316.883 227.340 C 317.941 228.629, 318.586 228.758, 319.633 227.890 C 320.385 227.266, 321 226.173, 321 225.461 C 321 224.749, 321.409 224.017, 321.908 223.833 C 322.408 223.650, 322.971 222.600, 323.158 221.500 C 323.346 220.400, 323.767 219.275, 324.093 219 C 324.419 218.725, 324.969 217.040, 325.317 215.256 C 326.121 211.122, 324.320 209.921, 313.710 207.514 C 309.425 206.542, 306.095 205.571, 306.311 205.356 C 306.526 205.141, 310.031 205.704, 314.101 206.608 C 328.726 209.855, 327.251 210.880, 326.670 197.877 C 325.962 182.016, 325.853 181.570, 322.645 181.323 C 321.165 181.209, 320.156 181.444, 320.404 181.844 M 272.186 192.055 C 270.213 192.846, 269.877 195, 271.726 195 C 272.060 195, 272.007 194.674, 271.608 194.275 C 271.209 193.876, 272.372 193.010, 274.191 192.351 C 276.011 191.692, 276.825 191.146, 276 191.139 C 275.175 191.132, 273.459 191.544, 272.186 192.055 M 300.250 204.689 C 301.212 204.941, 302.788 204.941, 303.750 204.689 C 304.712 204.438, 303.925 204.232, 302 204.232 C 300.075 204.232, 299.288 204.438, 300.250 204.689 M 272.350 213.982 C 272.998 218.093, 273.634 218.697, 274.199 215.739 C 274.446 214.449, 274.017 212.805, 273.246 212.085 C 272.059 210.976, 271.922 211.265, 272.350 213.982 M 188 215.531 C 188 216.339, 188.675 217, 189.500 217 C 190.325 217, 191 216.598, 191 216.107 C 191 215.616, 190.325 214.955, 189.500 214.638 C 188.586 214.288, 188 214.637, 188 215.531 M 271.136 218.821 C 271.061 220.098, 271.675 221.818, 272.500 222.643 C 273.833 223.976, 274 223.968, 274 222.571 C 274 221.707, 273.581 221, 273.070 221 C 272.558 221, 271.944 219.988, 271.706 218.750 C 271.272 216.500, 271.272 216.500, 271.136 218.821 M 233.088 221.394 C 231.402 223.426, 225.995 234.819, 226.030 236.266 C 226.068 237.811, 227.521 235.360, 231.669 226.750 C 234.930 219.983, 235.245 218.795, 233.088 221.394 M 242.629 227.103 C 242.288 228.809, 242.301 230.679, 242.659 231.257 C 243.016 231.836, 242.887 232.048, 242.371 231.729 C 241.827 231.393, 241.349 234.161, 241.233 238.325 C 241.122 242.271, 240.526 248.681, 239.908 252.570 C 239.290 256.458, 239.005 260.508, 239.276 261.570 C 239.547 262.631, 239.820 261.587, 239.884 259.250 C 239.948 256.913, 240.338 254.998, 240.750 254.996 C 241.162 254.993, 241.634 252.644, 241.797 249.776 C 241.960 246.907, 242.570 244.266, 243.153 243.905 C 243.889 243.451, 243.869 243.037, 243.090 242.556 C 242.473 242.174, 242.275 241.364, 242.651 240.755 C 243.436 239.485, 244.420 224, 243.715 224 C 243.459 224, 242.971 225.396, 242.629 227.103 M 269.389 239.570 C 269.725 240.447, 270 241.352, 270 241.582 C 270 241.812, 270.450 242, 271 242 C 272.629 242, 272.138 239.267, 270.389 238.596 C 269.209 238.143, 268.941 238.404, 269.389 239.570 M 221.946 243.750 C 221.122 244.713, 220.342 245.950, 220.212 246.500 C 219.476 249.619, 218.769 250.975, 218.095 250.559 C 217.676 250.300, 217.291 250.631, 217.239 251.294 C 217.187 251.957, 216.876 253.625, 216.546 255 C 215.948 257.500, 215.948 257.500, 217.196 255 C 217.883 253.625, 218.708 252.275, 219.029 252 C 219.351 251.725, 220.205 250.037, 220.928 248.250 C 221.651 246.463, 222.563 245, 222.955 245 C 223.346 245, 223.667 244.325, 223.667 243.500 C 223.667 241.652, 223.754 241.639, 221.946 243.750 M 264.566 268.107 C 265.033 268.863, 264.529 268.985, 262.980 268.494 C 260.992 267.863, 260.883 267.961, 262.104 269.281 C 262.872 270.111, 263.950 270.512, 264.500 270.173 C 265.050 269.834, 266.104 269.465, 266.842 269.353 C 267.580 269.241, 268.480 268.820, 268.842 268.416 C 269.204 268.012, 268.712 267.964, 267.750 268.309 C 266.788 268.655, 266 268.501, 266 267.969 C 266 267.436, 265.523 267, 264.941 267 C 264.359 267, 264.190 267.498, 264.566 268.107 M 255.115 307.500 C 255.069 309.700, 255.467 312.175, 256 313 C 256.738 314.143, 256.949 313.785, 256.885 311.500 C 256.839 309.850, 256.440 307.375, 256 306 C 255.305 303.831, 255.188 304.030, 255.115 307.500 M 319 377.441 C 319 379.334, 319.346 381.096, 319.768 381.357 C 320.191 381.618, 320.369 380.070, 320.163 377.916 C 319.702 373.080, 319 372.794, 319 377.441" stroke="none" fill="#8abf33" fill-rule="evenodd"/></svg>